<svg width="20" height="20" viewBox="0 0 20 20" fill="none" xmlns="http://www.w3.org/2000/svg">
<path d="M18.3337 5.94958V14.2829C18.3337 14.8355 18.1142 15.3654 17.7235 15.7561C17.3328 16.1468 16.8029 16.3663 16.2503 16.3663H3.75033C3.19779 16.3663 2.66789 16.1468 2.27719 15.7561C1.88649 15.3654 1.66699 14.8355 1.66699 14.2829V5.94958" stroke="#170F49" stroke-width="1.4" stroke-linecap="round" stroke-linejoin="round"/>
<path d="M18.3337 5.94961C18.3337 5.39707 18.1142 4.86717 17.7235 4.47647C17.3328 4.08577 16.8029 3.86627 16.2503 3.86627H3.75033C3.19779 3.86627 2.66789 4.08577 2.27719 4.47647C1.88649 4.86717 1.66699 5.39707 1.66699 5.94961L8.89616 10.4635C9.22727 10.6704 9.60987 10.7802 10.0003 10.7802C10.3908 10.7802 10.7734 10.6704 11.1045 10.4635L18.3337 5.94961Z" stroke="#170F49" stroke-width="1.4" stroke-linecap="round" stroke-linejoin="round"/>
</svg>
