<svg width="19" height="19" viewBox="0 0 19 19" fill="none" xmlns="http://www.w3.org/2000/svg">
<path d="M0.849609 3.31495C0.849609 2.73774 1.05232 2.26155 1.45772 1.88638C1.86312 1.51119 2.39016 1.32361 3.0388 1.32361C3.67587 1.32361 4.1913 1.5083 4.58513 1.87772C4.99053 2.25867 5.19324 2.75505 5.19324 3.3669C5.19324 3.92101 4.99633 4.38276 4.6025 4.75218C4.19711 5.13313 3.66428 5.32361 3.00405 5.32361H2.98668C2.3496 5.32361 1.83417 5.13313 1.44034 4.75218C1.04651 4.37123 0.849609 3.89214 0.849609 3.31495ZM1.07548 18.4665V6.89936H4.93262V18.4665H1.07548ZM7.06969 18.4665H10.9268V12.0076C10.9268 11.6035 10.9732 11.2918 11.0658 11.0725C11.228 10.68 11.4741 10.3481 11.8042 10.0769C12.1344 9.80556 12.5484 9.66993 13.0465 9.66993C14.3438 9.66993 14.9925 10.5415 14.9925 12.2846V18.4665H18.8496V11.8344C18.8496 10.1259 18.4442 8.8301 17.6334 7.94698C16.8226 7.06387 15.7512 6.62231 14.4191 6.62231C12.9249 6.62231 11.7608 7.263 10.9268 8.54438V8.57902H10.9095L10.9268 8.54438V6.89936H7.06969C7.09285 7.26877 7.10444 8.41739 7.10444 10.3453C7.10444 12.2731 7.09285 14.9802 7.06969 18.4665Z" fill="#FFBD67"/>
</svg>
