<svg xmlns="http://www.w3.org/2000/svg" width="32" height="32">
    <path style="stroke:none;fill-rule:nonzero;fill:#000;fill-opacity:1" d="m29.34 10.719-8.117-1.332-3.63-8.274c-.648-1.476-2.53-1.496-3.187 0l-3.629 8.274-8.117 1.332c-1.453.238-2.039 2.258-.98 3.414l5.87 6.437-1.39 9.094c-.25 1.64 1.29 2.875 2.578 2.106L16 27.477l7.262 4.293c1.289.761 2.828-.465 2.578-2.106l-1.39-9.094 5.87-6.437c1.059-1.156.473-3.176-.98-3.414Zm-7.75 8.8 1.316 8.649L16 24.086l-6.906 4.082 1.316-8.648-5.59-6.125 7.723-1.262L16 4.258l3.457 7.875 7.723 1.262Zm0 0"/>
</svg>
