<svg width="21" height="15" viewBox="0 0 21 15" fill="none" xmlns="http://www.w3.org/2000/svg">
<path d="M11.2879 14.3749L7.22568 14.299C5.91044 14.2726 4.59191 14.3254 3.30246 14.0513C1.34089 13.6418 1.20193 11.6339 1.05652 9.94964C0.856153 7.5818 0.933719 5.17098 1.31183 2.82291C1.52528 1.50539 2.36532 0.719218 3.6644 0.633667C8.04975 0.323192 12.4643 0.359987 16.8399 0.504835C17.302 0.518113 17.7673 0.590689 18.223 0.6733C20.4723 1.07622 20.5271 3.35161 20.673 5.26707C20.8184 7.20229 20.757 9.14745 20.479 11.0695C20.2561 12.6609 19.8295 13.9954 18.0291 14.1243C15.7733 14.2927 13.5693 14.4284 11.3072 14.3852C11.3073 14.3749 11.2943 14.3749 11.2879 14.3749ZM8.8997 10.346C10.5996 9.34856 12.2671 8.36777 13.9573 7.37704C12.2542 6.37963 10.5899 5.39884 8.8997 4.40812V10.346Z" fill="#FFBD67"/>
</svg>
